<?xml version="1.0" encoding="UTF-8" standalone="no"?>
<svg
   xmlns:dc="http://purl.org/dc/elements/1.1/"
   xmlns:cc="http://creativecommons.org/ns#"
   xmlns:rdf="http://www.w3.org/1999/02/22-rdf-syntax-ns#"
   xmlns:svg="http://www.w3.org/2000/svg"
   xmlns="http://www.w3.org/2000/svg"
   xmlns:sodipodi="http://sodipodi.sourceforge.net/DTD/sodipodi-0.dtd"
   xmlns:inkscape="http://www.inkscape.org/namespaces/inkscape"
   version="1.1"
   id="svg2"
   xml:space="preserve"
   width="448.02667"
   height="221.94667"
   viewBox="0 0 448.02667 221.94667"
   sodipodi:docname="eosc_logo.eps"><metadata
     id="metadata8"><rdf:RDF><cc:Work
         rdf:about=""><dc:format>image/svg+xml</dc:format><dc:type
           rdf:resource="http://purl.org/dc/dcmitype/StillImage" /></cc:Work></rdf:RDF></metadata><defs
     id="defs6"><clipPath
       clipPathUnits="userSpaceOnUse"
       id="clipPath20"><path
         d="m 639.004,840.566 h 203.445 c 5.637,-2.003 9.676,-7.324 9.676,-13.613 0,-8.031 -6.504,-14.535 -14.504,-14.535 h -13.926 c -8.011,0 -14.515,-6.504 -14.515,-14.516 0,-8 6.504,-14.504 14.515,-14.504 h 101.016 c 8.019,0 14.523,-6.503 14.523,-14.515 0,-8.016 -6.492,-14.5 -14.504,-14.52 h -0.019 l -158.926,-0.015 c -8.012,0 -14.515,-6.489 -14.515,-14.516 v -0.019 c 0,-8 6.503,-14.504 14.515,-14.504 l 110.547,0.019 h 0.016 c 8.011,-0.031 14.488,-6.523 14.488,-14.519 0,-8.012 -6.488,-14.52 -14.504,-14.52 h -178.93 c -8.011,0 -14.515,-6.504 -14.515,-14.516 0,-8.031 6.504,-14.535 14.515,-14.535 h 290.375 c 63.373,0 114.743,51.387 114.743,114.766 0,21.418 -5.97,41.402 -16.21,58.562 h 0.73 c -20.41,33.961 -57.51,56.747 -100.02,56.747 -9.094,0 -17.883,-1.168 -26.375,-3.141 -9.375,22.516 -23.747,42.375 -41.563,58.48 -1.199,1.086 -2.418,2.168 -3.648,3.219 -1.59,1.383 -3.168,2.777 -4.813,4.125 -28.687,23.356 -65.246,37.414 -105.125,37.414 -88.777,0 -161.336,-69.355 -166.492,-156.844 m 7.617,-28.148 h -104.07 c -8.016,0 -14.52,-6.504 -14.52,-14.516 0,-8 6.504,-14.504 14.52,-14.504 h 46.691 190.309 c 8,0 14.504,6.504 14.504,14.504 0,8.012 -6.504,14.516 -14.504,14.516 z m 60.473,-72.586 c 0,-7.984 6.453,-14.473 14.449,-14.488 7.984,0.015 14.437,6.504 14.437,14.488 0,7.996 -6.453,14.481 -14.437,14.516 -7.996,-0.035 -14.449,-6.52 -14.449,-14.516 m -135.508,14.516 c -0.887,0 -1.723,-0.098 -2.543,-0.25 -6.801,-1.211 -11.957,-7.125 -11.957,-14.266 0,-5.934 3.562,-11.055 8.707,-13.285 1.785,-0.774 3.723,-1.219 5.793,-1.219 h 101.496 c 8.012,0 14.516,6.504 14.516,14.504 0,8.027 -6.504,14.516 -14.516,14.516 z m 72.687,-58.059 h -43.652 c -8.016,0 -14.516,-6.504 -14.516,-14.516 0,-8.031 6.5,-14.535 14.516,-14.535 h 30.363 22.75 c 8.012,0 14.504,6.504 14.504,14.535 0,8.012 -6.492,14.516 -14.504,14.516 z"
         id="path18" /></clipPath><clipPath
       clipPathUnits="userSpaceOnUse"
       id="clipPath26"><path
         d="M 528.031,997.41 H 1102.52 V 667.238 H 528.031 Z"
         id="path24" /></clipPath><linearGradient
       x1="0"
       y1="0"
       x2="1"
       y2="0"
       gradientUnits="userSpaceOnUse"
       gradientTransform="matrix(574.492,0,0,574.492,528.033,832.323)"
       spreadMethod="pad"
       id="linearGradient34"><stop
         style="stop-opacity:1;stop-color:#53c7dc"
         offset="0"
         id="stop28" /><stop
         style="stop-opacity:1;stop-color:#304da7"
         offset="0.987182"
         id="stop30" /><stop
         style="stop-opacity:1;stop-color:#304da7"
         offset="1"
         id="stop32" /></linearGradient></defs><sodipodi:namedview
     pagecolor="#ffffff"
     bordercolor="#666666"
     borderopacity="1"
     objecttolerance="10"
     gridtolerance="10"
     guidetolerance="10"
     inkscape:pageopacity="0"
     inkscape:pageshadow="2"
     inkscape:window-width="640"
     inkscape:window-height="480"
     id="namedview4" /><g
     id="g10"
     inkscape:groupmode="layer"
     inkscape:label="ink_ext_XXXXXX"
     transform="matrix(1.3333333,0,0,-1.3333333,0,221.94667)"><g
       id="g12"
       transform="scale(0.1)"><g
         id="g14"><g
           id="g16"
           clip-path="url(#clipPath20)"><g
             id="g22"
             clip-path="url(#clipPath26)"><path
               d="m 596,667 v 1 h -3 v 1 h -1 v 1 h -2 v 1 h -1 v 2 h -1 v 1 h -1 v 2 h -1 v 11 h 1 v 2 h 1 v 2 h 1 v 1 h 1 v 1 h 1 v 1 h 1 v 1 h 2 v 1 h 3 v 1 h 60 v -1 h 3 v -1 h 2 v -1 h 1 v -1 h 2 v -2 h 1 v -1 h 1 v -2 h 1 v -3 h 1 v -6 h -1 v -4 h -1 v -1 h -1 v -2 h -1 v -1 h -1 v -1 h -1 v -1 h -2 v -1 h -2 v -1 z m 96,0 v 1 h -2 v 1 h -2 v 1 h -1 v 1 h -1 v 1 h -1 v 2 h -1 v 2 h -1 v 4 h -1 v 4 h 1 v 4 h 1 v 2 h 1 v 1 h 1 v 1 h 1 v 1 h 1 v 1 h 1 v 1 h 2 v 1 h 3 v 1 h 186 v 1 h 3 v 1 h 1 v 1 h 1 v 1 h 1 v 1 h 1 v 1 h 1 v 1 h 1 v 3 h 1 v 8 h -1 v 2 h -1 v 2 h -1 v 1 h -1 v 1 h -1 v 1 h -1 v 1 h -2 v 1 h -3 v 1 H 761 v 1 h -2 v 1 h -2 v 1 h -1 v 1 h -1 v 1 h -1 v 1 h -1 v 2 h -1 v 2 h -1 v 10 h 1 v 2 h 1 v 2 h 1 v 1 h 1 v 1 h 1 v 1 h 1 v 1 h 2 v 1 h 3 v 1 h 166 v 1 h 3 v 1 h 2 v 1 h 1 v 1 h 1 v 1 h 1 v 2 h 1 v 2 h 1 v 3 h 1 v 4 h -1 v 3 h -1 v 2 h -1 v 1 h -1 v 2 h -2 v 1 h -1 v 1 h -2 v 1 h -3 v 1 H 819 v 1 h -2 v 1 h -2 v 1 h -1 v 1 h -1 v 1 h -1 v 1 h -1 v 2 h -1 v 2 h -1 v 10 h 1 v 2 h 1 v 2 h 1 v 1 h 1 v 1 h 1 v 1 h 1 v 1 h 2 v 1 h 3 v 1 h 21 v 1 h 3 v 1 h 1 v 1 h 2 v 1 h 1 v 2 h 1 v 1 h 1 v 2 h 1 v 4 h 1 v 2 h -1 v 4 h -1 v 2 h -1 v 1 h -1 v 1 h -1 v 1 h -1 v 1 h -1 v 1 h -2 v 1 H 639 v 11 h 1 v 7 h 1 v 5 h 1 v 5 h 1 v 5 h 1 v 3 h 1 v 3 h 1 v 4 h 1 v 3 h 1 v 3 h 1 v 2 h 1 v 3 h 1 v 2 h 1 v 2 h 1 v 3 h 1 v 2 h 1 v 2 h 1 v 2 h 1 v 2 h 1 v 2 h 1 v 1 h 1 v 2 h 1 v 2 h 1 v 2 h 1 v 1 h 1 v 2 h 1 v 1 h 1 v 2 h 1 v 1 h 1 v 2 h 1 v 1 h 1 v 2 h 1 v 1 h 1 v 1 h 1 v 1 h 1 v 2 h 1 v 1 h 1 v 1 h 1 v 1 h 1 v 2 h 1 v 1 h 1 v 1 h 1 v 1 h 1 v 1 h 1 v 1 h 1 v 1 h 1 v 1 h 1 v 1 h 1 v 1 h 1 v 1 h 1 v 1 h 1 v 1 h 1 v 1 h 1 v 1 h 1 v 1 h 1 v 1 h 1 v 1 h 1 v 1 h 2 v 1 h 1 v 1 h 1 v 1 h 1 v 1 h 1 v 1 h 2 v 1 h 1 v 1 h 1 v 1 h 2 v 1 h 1 v 1 h 2 v 1 h 1 v 1 h 1 v 1 h 2 v 1 h 2 v 1 h 1 v 1 h 2 v 1 h 2 v 1 h 2 v 1 h 1 v 1 h 2 v 1 h 2 v 1 h 2 v 1 h 2 v 1 h 2 v 1 h 2 v 1 h 3 v 1 h 2 v 1 h 3 v 1 h 2 v 1 h 3 v 1 h 3 v 1 h 3 v 1 h 3 v 1 h 4 v 1 h 4 v 1 h 5 v 1 h 6 v 1 h 6 v 1 h 11 v 1 h 22 v -1 h 10 v -1 h 7 v -1 h 5 v -1 h 5 v -1 h 4 v -1 h 4 v -1 h 3 v -1 h 3 v -1 h 3 v -1 h 3 v -1 h 2 v -1 h 3 v -1 h 2 v -1 h 3 v -1 h 2 v -1 h 2 v -1 h 2 v -1 h 2 v -1 h 2 v -1 h 2 v -1 h 2 v -1 h 1 v -1 h 2 v -1 h 2 v -1 h 1 v -1 h 2 v -1 h 1 v -1 h 2 v -1 h 1 v -1 h 2 v -1 h 1 v -1 h 2 v -1 h 1 v -1 h 1 v -1 h 2 v -1 h 1 v -1 h 1 v -1 h 1 v -1 h 1 v -1 h 2 v -1 h 1 v -1 h 1 v -1 h 1 v -1 h 1 v -1 h 1 v -1 h 1 v -1 h 2 v -1 h 1 v -2 h 1 v -1 h 1 v -1 h 1 v -1 h 1 v -1 h 1 v -1 h 1 v -1 h 1 v -1 h 1 v -1 h 1 v -1 h 1 v -1 h 1 v -2 h 1 v -1 h 1 v -1 h 1 v -1 h 1 v -2 h 1 v -1 h 1 v -1 h 1 v -1 h 1 v -2 h 1 v -1 h 1 v -2 h 1 v -1 h 1 v -2 h 1 v -2 h 1 v -1 h 1 v -2 h 1 v -1 h 1 v -2 h 1 v -2 h 1 v -2 h 1 v -1 h 1 v -2 h 1 v -2 h 1 v -2 h 1 v -2 h 1 v -3 h 1 v -1 h 3 v 1 h 6 v 1 h 9 v 1 h 16 v -1 h 9 v -1 h 5 v -1 h 5 v -1 h 5 v -1 h 3 v -1 h 3 v -1 h 3 v -1 h 2 v -1 h 3 v -1 h 2 v -1 h 2 v -1 h 2 v -1 h 2 v -1 h 2 v -1 h 2 v -1 h 2 v -1 h 1 v -1 h 2 v -1 h 1 v -1 h 2 v -1 h 1 v -1 h 2 v -1 h 1 v -1 h 2 v -1 h 1 v -1 h 1 v -1 h 1 v -1 h 1 v -1 h 1 v -1 h 2 v -1 h 1 v -1 h 1 v -1 h 1 v -1 h 1 v -1 h 1 v -1 h 1 v -1 h 1 v -1 h 1 v -2 h 1 v -1 h 1 v -1 h 1 v -1 h 1 v -1 h 1 v -1 h 1 v -2 h 1 v -1 h 1 v -1 h 1 v -2 h 1 v -1 h 1 v -2 h 1 v -1 h 1 v -2 h 1 v -3 h 1 v -2 h 1 v -2 h 1 v -2 h 1 v -2 h 1 v -2 h 1 v -3 h 1 v -2 h 1 v -3 h 1 v -3 h 1 v -3 h 1 v -4 h 1 v -5 h 1 v -5 h 1 v -8 h 1 v -21 h -1 v -7 h -1 v -6 h -1 v -4 h -1 v -4 h -1 v -4 h -1 v -2 h -1 v -3 h -1 v -3 h -1 v -2 h -1 v -2 h -1 v -2 h -1 v -2 h -1 v -3 h -1 v -1 h -1 v -2 h -1 v -2 h -1 v -1 h -1 v -2 h -1 v -2 h -1 v -1 h -1 v -1 h -1 v -2 h -1 v -1 h -1 v -1 h -1 v -2 h -1 v -1 h -1 v -1 h -1 v -1 h -1 v -1 h -1 v -1 h -1 v -1 h -1 v -1 h -1 v -2 h -2 v -1 h -1 v -1 h -1 v -1 h -1 v -1 h -1 v -1 h -1 v -1 h -1 v -1 h -1 v -1 h -2 v -1 h -1 v -1 h -1 v -1 h -2 v -1 h -1 v -1 h -1 v -1 h -2 v -1 h -2 v -1 h -1 v -1 h -2 v -1 h -2 v -1 h -1 v -1 h -2 v -1 h -2 v -1 h -2 v -1 h -3 v -1 h -2 v -1 h -2 v -1 h -3 v -1 h -3 v -1 h -3 v -1 h -4 v -1 h -4 v -1 h -5 v -1 h -7 v -1 z m -125,58 v 1 h -3 v 1 h -1 v 1 h -1 v 1 h -1 v 1 h -1 v 1 h -1 v 1 h -1 v 2 h -1 v 11 h 1 v 2 h 1 v 2 h 1 v 1 h 1 v 1 h 1 v 1 h 1 v 1 h 2 v 1 h 3 v 1 h 109 v -1 h 3 v -1 h 1 v -1 h 2 v -1 h 1 v -1 h 1 v -1 h 1 v -2 h 1 v -3 h 1 v -9 h -1 v -2 h -1 v -2 h -1 v -1 h -1 v -1 h -1 v -1 h -1 v -1 h -2 v -1 h -2 v -1 z m 150,0 v 1 h -3 v 1 h -1 v 1 h -1 v 1 h -2 v 2 h -1 v 1 h -1 v 2 h -1 v 11 h 1 v 2 h 1 v 2 h 1 v 1 h 1 v 1 h 1 v 1 h 1 v 1 h 2 v 1 h 3 v 1 h 7 v -1 h 3 v -1 h 2 v -1 h 1 v -1 h 1 v -1 h 1 v -1 h 1 v -1 h 1 v -3 h 1 v -11 h -1 v -2 h -1 v -1 h -1 v -2 h -1 v -1 h -2 v -1 h -1 v -1 h -3 v -1 z m -179,58 v 1 h -2 v 1 h -2 v 1 h -1 v 1 h -2 v 2 h -1 v 1 h -1 v 2 h -1 v 11 h 1 v 3 h 1 v 1 h 1 v 1 h 1 v 1 h 1 v 1 h 1 v 1 h 2 v 1 h 3 v 1 h 244 v -1 h 3 v -1 h 2 v -1 h 1 v -1 h 1 v -1 h 1 v -1 h 1 v -1 h 1 v -2 h 1 v -4 h 1 v -4 h -1 v -4 h -1 v -2 h -1 v -1 h -1 v -2 h -1 v -1 h -2 v -1 h -1 v -1 h -3 v -1"
               style="fill:url(#linearGradient34);fill-opacity:1;fill-rule:nonzero;stroke:none"
               id="path36" /></g></g></g><path
         d="m 295.137,831.91 46.906,15.656 v 50.219 l 29.641,-40.351 46.906,14.828 -28.805,-40.352 28.805,-39.496 -46.906,14.832 -29.641,-40.355 v 50.226 l -46.906,14.793"
         style="fill:#fbc617;fill-opacity:1;fill-rule:nonzero;stroke:none"
         id="path38" /><path
         d="m 356.863,600.66 46.903,14.809 v 50.207 l 29.629,-40.317 46.918,15.621 -28.805,-40.32 28.805,-40.32 -46.918,14.801 -29.629,-39.481 v 49.352 l -46.903,15.648"
         style="fill:#fbc617;fill-opacity:1;fill-rule:nonzero;stroke:none"
         id="path40" /><path
         d="m 526.406,430.281 46.907,15.649 v 50.211 l 29.64,-40.352 46.906,15.652 -28.808,-40.332 28.808,-40.32 -46.906,14.832 -29.64,-40.351 v 50.199 l -46.907,14.812"
         style="fill:#fbc617;fill-opacity:1;fill-rule:nonzero;stroke:none"
         id="path42" /><path
         d="m 357.688,1064.02 46.917,15.63 v 49.39 l 29.61,-40.32 46.922,15.63 -28.809,-40.33 28.809,-40.34 -46.922,15.64 -29.61,-40.324 v 49.384 l -46.917,15.64"
         style="fill:#fbc617;fill-opacity:1;fill-rule:nonzero;stroke:none"
         id="path44" /><path
         d="m 570.023,1291.99 29.625,-40.33 46.922,14.82 -29.629,-39.51 29.629,-40.33 -46.922,14.82 -29.625,-40.32 v 50.2 l -46.902,14.81 46.902,15.64 v 50.2"
         style="fill:#fbc617;fill-opacity:1;fill-rule:nonzero;stroke:none"
         id="path46" /><path
         d="m 802.938,1355.36 28.804,-40.33 46.926,15.63 -28.809,-40.32 28.809,-40.33 -46.926,15.63 -29.625,-40.31 v 49.38 l -46.922,15.63 46.922,15.64 0.821,49.38"
         style="fill:#fbc617;fill-opacity:1;fill-rule:nonzero;stroke:none"
         id="path48" /><path
         d="m 1102.52,1270.59 -29.62,-40.32 29.62,-40.33 -46.93,15.63 -29.63,-40.32 v 49.39 l -46.89,15.63 46.89,15.64 v 49.38 l 28.82,-40.33 47.74,15.63"
         style="fill:#fbc617;fill-opacity:1;fill-rule:nonzero;stroke:none"
         id="path50" /><path
         d="m 1335.42,796.531 -46.88,14.828 -29.65,-40.351 v 50.219 l -46.92,14.828 46.92,15.621 v 49.387 l 29.65,-39.512 46.88,14.808 -28.8,-40.304 28.8,-39.524"
         style="fill:#fbc617;fill-opacity:1;fill-rule:nonzero;stroke:none"
         id="path52" /><path
         d="m 1274.52,564.441 -47.73,14.821 -28.8,-40.321 v 50.207 l -47.75,14.793 47.75,15.661 -0.83,49.359 29.63,-40.32 46.91,15.621 -28.81,-40.321 29.63,-39.5"
         style="fill:#fbc617;fill-opacity:1;fill-rule:nonzero;stroke:none"
         id="path54" /><path
         d="m 1272.88,1101.04 -28.81,-40.32 28.81,-40.33 -47.73,15.65 -28.8,-40.337 v 50.207 l -46.94,14.81 46.94,15.64 v 49.38 l 29.62,-40.33 46.91,15.63"
         style="fill:#fbc617;fill-opacity:1;fill-rule:nonzero;stroke:none"
         id="path56" /><path
         d="m 803.762,309.289 v 49.402 l -47.727,15.649 47.727,15.621 -0.824,49.398 29.625,-40.347 46.941,15.648 -28.824,-40.32 29.629,-40.352 -47.746,15.672 -28.801,-40.371"
         style="fill:#fbc617;fill-opacity:1;fill-rule:nonzero;stroke:none"
         id="path58" /><path
         d="m 1102.52,394.078 -47.74,15.652 -28.82,-40.351 v 49.383 l -47.706,15.66 47.706,15.629 v 49.39 l 28.82,-40.363 47.74,15.672 -29.62,-40.328 29.62,-40.344"
         style="fill:#fbc617;fill-opacity:1;fill-rule:nonzero;stroke:none"
         id="path60" /><path
         d="m 1550.44,906.176 h 55.49 v -31.684 h -99.83 v 162.688 h 97.57 v -31.68 h -53.23 v -33.195 h 45.87 v -31.676 h -45.87 v -34.453"
         style="fill:#192a33;fill-opacity:1;fill-rule:nonzero;stroke:none"
         id="path62" /><path
         d="m 1687.53,1037.18 h 44.34 V 905.91 c 0,-20.957 -12.41,-31.422 -37.24,-31.422 h -37.52 c -24.82,0 -37.24,10.465 -37.24,31.422 v 131.27 h 44.36 V 911.738 c 0,-3.715 2.1,-5.57 6.32,-5.57 h 10.64 c 4.24,0 6.34,1.855 6.34,5.57 v 125.442"
         style="fill:#192a33;fill-opacity:1;fill-rule:nonzero;stroke:none"
         id="path64" /><path
         d="m 1796.5,932.262 v -57.778 h -44.35 v 162.686 h 75.27 c 24.83,0 37.25,-10.46 37.25,-31.42 v -42.07 c 0,-16.047 -7.28,-25.914 -21.79,-29.629 l 29.9,-59.567 h -47.64 l -25.85,57.778 z m 17.49,73.248 h -17.49 v -43.096 h 17.49 c 4.22,0 6.34,1.871 6.34,5.586 v 31.926 c 0,3.704 -2.12,5.584 -6.34,5.584"
         style="fill:#192a33;fill-opacity:1;fill-rule:nonzero;stroke:none"
         id="path66" /><path
         d="m 1918.9,1037.18 h 37.49 c 24.85,0 37.27,-10.48 37.27,-31.42 v -99.85 c 0,-20.957 -12.42,-31.422 -37.27,-31.422 h -37.49 c -24.83,0 -37.26,10.465 -37.26,31.422 v 99.85 c 0,20.94 12.43,31.42 37.26,31.42 m 30.41,-125.442 v 88.192 c 0,3.71 -2.11,5.57 -6.34,5.57 h -10.66 c -4.21,0 -6.32,-1.86 -6.32,-5.57 v -88.192 c 0,-3.715 2.11,-5.57 6.32,-5.57 h 10.66 c 4.23,0 6.34,1.855 6.34,5.57"
         style="fill:#192a33;fill-opacity:1;fill-rule:nonzero;stroke:none"
         id="path68" /><path
         d="m 2013.17,1037.18 h 75.26 c 24.84,0 37.25,-10.48 37.25,-31.42 v -46.627 c 0,-20.953 -12.41,-31.43 -37.25,-31.43 h -30.92 v -53.215 h -44.34 z m 68.17,-72.231 v 34.981 c 0,3.71 -2.12,5.57 -6.34,5.57 h -17.49 V 959.383 H 2075 c 4.22,0 6.34,1.855 6.34,5.566"
         style="fill:#192a33;fill-opacity:1;fill-rule:nonzero;stroke:none"
         id="path70" /><path
         d="m 2185.23,906.176 h 55.49 v -31.684 h -99.84 v 162.688 h 97.58 v -31.68 h -53.23 v -33.195 h 45.87 v -31.676 h -45.87 v -34.453"
         style="fill:#192a33;fill-opacity:1;fill-rule:nonzero;stroke:none"
         id="path72" /><path
         d="m 2337.52,874.488 -5.07,24.321 h -39.02 l -5.32,-24.321 h -43.59 l 41.82,162.692 h 53.98 l 41.81,-162.692 z m -37.26,55.739 h 25.36 l -12.43,58.55 z"
         style="fill:#192a33;fill-opacity:1;fill-rule:nonzero;stroke:none"
         id="path74" /><path
         d="m 2466.5,1037.18 h 40.56 V 874.488 h -38.03 l -36.22,85.403 v -85.403 h -40.55 v 162.692 h 38.02 l 36.22,-86.93 v 86.93"
         style="fill:#192a33;fill-opacity:1;fill-rule:nonzero;stroke:none"
         id="path76" /><path
         d="M 2614.51,1037.18 H 2652 c 24.83,0 37.26,-10.48 37.26,-31.42 v -99.85 c 0,-20.957 -12.43,-31.422 -37.26,-31.422 h -37.49 c -24.84,0 -37.27,10.465 -37.27,31.422 v 99.85 c 0,20.94 12.43,31.42 37.27,31.42 m 30.41,-125.442 v 88.192 c 0,3.71 -2.12,5.57 -6.34,5.57 h -10.66 c -4.22,0 -6.32,-1.86 -6.32,-5.57 v -88.192 c 0,-3.715 2.1,-5.57 6.32,-5.57 h 10.66 c 4.22,0 6.34,1.855 6.34,5.57"
         style="fill:#192a33;fill-opacity:1;fill-rule:nonzero;stroke:none"
         id="path78" /><path
         d="m 2708.77,1037.18 h 75.27 c 24.83,0 37.24,-10.48 37.24,-31.42 v -46.627 c 0,-20.953 -12.41,-31.43 -37.24,-31.43 h -30.93 v -53.215 h -44.34 z m 68.17,-72.231 v 34.981 c 0,3.71 -2.12,5.57 -6.33,5.57 h -17.5 v -46.117 h 17.5 c 4.21,0 6.33,1.855 6.33,5.566"
         style="fill:#192a33;fill-opacity:1;fill-rule:nonzero;stroke:none"
         id="path80" /><path
         d="m 2880.83,906.176 h 55.5 v -31.684 h -99.84 v 162.688 h 97.57 v -31.68 h -53.23 v -33.195 h 45.87 v -31.676 h -45.87 v -34.453"
         style="fill:#192a33;fill-opacity:1;fill-rule:nonzero;stroke:none"
         id="path82" /><path
         d="m 3024.51,1037.18 h 40.55 V 874.488 h -38.02 l -36.23,85.403 v -85.403 h -40.55 v 162.692 h 38.02 l 36.23,-86.93 v 86.93"
         style="fill:#192a33;fill-opacity:1;fill-rule:nonzero;stroke:none"
         id="path84" /><path
         d="m 1572.61,667.227 v 24.605 c 0,3.977 -2.26,5.941 -6.77,5.941 h -25.96 c -13.33,0 -22.75,2.942 -28.24,8.79 -5.51,5.863 -8.25,14.289 -8.25,25.277 v 35.699 c 0,22.356 13.15,33.524 39.48,33.524 h 37.03 c 26.33,0 39.48,-11.168 39.48,-33.524 v -20.824 h -47.31 v 14.601 c 0,3.957 -2.27,5.961 -6.77,5.961 h -7.83 c -4.52,0 -6.77,-2.004 -6.77,-5.961 v -25.683 c 0,-3.977 2.25,-5.949 6.77,-5.949 h 25.41 c 13.33,0 22.86,-2.789 28.54,-8.375 5.66,-5.598 8.51,-13.793 8.51,-24.618 v -35.679 c 0,-22.364 -13.17,-33.543 -39.49,-33.543 h -36.76 c -26.5,0 -39.75,11.179 -39.75,33.543 v 20.801 h 47.32 v -14.586 c 0,-3.957 2.25,-5.938 6.76,-5.938 h 7.83 c 4.51,0 6.77,1.981 6.77,5.938"
         style="fill:#192a33;fill-opacity:1;fill-rule:nonzero;stroke:none"
         id="path86" /><path
         d="m 1755.11,736.176 h -47.31 v 27.855 c 0,3.953 -2.27,5.942 -6.77,5.942 h -9.46 c -4.5,0 -6.75,-1.989 -6.75,-5.942 V 664.52 c 0,-3.961 2.25,-5.942 6.75,-5.942 h 9.46 c 4.5,0 6.77,1.981 6.77,5.942 v 26.769 h 47.31 v -30.277 c 0,-22.364 -13.24,-33.543 -39.74,-33.543 h -38.12 c -26.51,0 -39.74,11.179 -39.74,33.543 v 106.527 c 0,22.356 13.23,33.524 39.74,33.524 h 38.12 c 26.5,0 39.74,-11.168 39.74,-33.524 v -31.363"
         style="fill:#192a33;fill-opacity:1;fill-rule:nonzero;stroke:none"
         id="path88" /><path
         d="m 1772.68,801.07 h 47.31 V 627.48 h -47.31 v 173.59"
         style="fill:#192a33;fill-opacity:1;fill-rule:nonzero;stroke:none"
         id="path90" /><path
         d="m 1888.94,661.281 h 59.2 V 627.48 h -106.51 v 173.59 h 104.1 v -33.797 h -56.79 v -35.421 h 48.94 v -33.797 h -48.94 v -36.774"
         style="fill:#192a33;fill-opacity:1;fill-rule:nonzero;stroke:none"
         id="path92" /><path
         d="m 2042.25,801.066 h 43.25 V 627.48 h -40.54 l -38.67,91.125 V 627.48 h -43.25 v 173.586 h 40.54 l 38.67,-92.738 v 92.738"
         style="fill:#192a33;fill-opacity:1;fill-rule:nonzero;stroke:none"
         id="path94" /><path
         d="m 2223.4,736.176 h -47.32 v 27.855 c 0,3.953 -2.27,5.942 -6.76,5.942 h -9.46 c -4.5,0 -6.75,-1.989 -6.75,-5.942 V 664.52 c 0,-3.961 2.25,-5.942 6.75,-5.942 h 9.46 c 4.49,0 6.76,1.981 6.76,5.942 v 26.769 h 47.32 v -30.277 c 0,-22.364 -13.24,-33.543 -39.75,-33.543 h -38.11 c -26.51,0 -39.75,11.179 -39.75,33.543 v 106.527 c 0,22.356 13.24,33.524 39.75,33.524 h 38.11 c 26.51,0 39.75,-11.168 39.75,-33.524 v -31.363"
         style="fill:#192a33;fill-opacity:1;fill-rule:nonzero;stroke:none"
         id="path96" /><path
         d="m 2288.29,661.281 h 59.2 V 627.48 h -106.52 v 173.59 h 104.11 v -33.797 h -56.79 v -35.421 h 48.94 v -33.797 h -48.94 v -36.774"
         style="fill:#192a33;fill-opacity:1;fill-rule:nonzero;stroke:none"
         id="path98" /><path
         d="m 2532.7,736.176 h -47.32 v 27.855 c 0,3.953 -2.26,5.942 -6.77,5.942 h -9.45 c -4.51,0 -6.75,-1.989 -6.75,-5.942 V 664.52 c 0,-3.961 2.24,-5.942 6.75,-5.942 h 9.45 c 4.51,0 6.77,1.981 6.77,5.942 v 26.769 h 47.32 v -30.277 c 0,-22.364 -13.24,-33.543 -39.75,-33.543 h -38.12 c -26.5,0 -39.74,11.179 -39.74,33.543 v 106.527 c 0,22.356 13.24,33.524 39.74,33.524 h 38.12 c 26.51,0 39.75,-11.168 39.75,-33.524 v -31.363"
         style="fill:#192a33;fill-opacity:1;fill-rule:nonzero;stroke:none"
         id="path100" /><path
         d="m 2597.59,661.281 h 53.8 V 627.48 h -101.12 v 173.59 h 47.32 V 661.281"
         style="fill:#192a33;fill-opacity:1;fill-rule:nonzero;stroke:none"
         id="path102" /><path
         d="m 2701.15,801.066 h 40 c 26.51,0 39.76,-11.168 39.76,-33.519 V 661.012 c 0,-22.352 -13.25,-33.532 -39.76,-33.532 h -40 c -26.49,0 -39.75,11.18 -39.75,33.532 v 106.535 c 0,22.351 13.26,33.519 39.75,33.519 m 32.45,-133.832 v 94.086 c 0,3.961 -2.27,5.946 -6.77,5.946 h -11.36 c -4.5,0 -6.75,-1.985 -6.75,-5.946 v -94.086 c 0,-3.972 2.25,-5.953 6.75,-5.953 h 11.36 c 4.5,0 6.77,1.981 6.77,5.953"
         style="fill:#192a33;fill-opacity:1;fill-rule:nonzero;stroke:none"
         id="path104" /><path
         d="m 2873.91,801.066 h 47.31 V 661.012 c 0,-22.352 -13.24,-33.532 -39.75,-33.532 h -40.02 c -26.49,0 -39.73,11.18 -39.73,33.532 v 140.054 h 47.32 V 667.234 c 0,-3.972 2.25,-5.953 6.75,-5.953 h 11.35 c 4.52,0 6.77,1.981 6.77,5.953 v 133.832"
         style="fill:#192a33;fill-opacity:1;fill-rule:nonzero;stroke:none"
         id="path106" /><path
         d="m 2945.56,801.066 h 79.76 c 26.49,0 39.74,-11.168 39.74,-33.519 V 661.012 c 0,-22.352 -13.25,-33.532 -39.74,-33.532 h -79.76 z m 72.19,-136.535 v 99.485 c 0,3.972 -2.27,5.949 -6.76,5.949 h -18.12 V 658.578 h 18.12 c 4.49,0 6.76,1.973 6.76,5.953"
         style="fill:#192a33;fill-opacity:1;fill-rule:nonzero;stroke:none"
         id="path108" /></g></g></svg>
